{
  "accessors": [
    {
      "bufferView": 0,
      "componentType": 5125,
      "count": 97809,
      "type": "SCALAR"
    },
    {
      "bufferView": 1,
      "componentType": 5126,
      "count": 16833,
      "max": [
        742.716125488281,
        1124.49291992188,
        639.24267578125
      ],
      "min": [
        -716.328552246094,
        -0.0965576171875,
        -550.927978515625
      ],
      "type": "VEC3"
    },
    {
      "bufferView": 2,
      "componentType": 5126,
      "count": 16833,
      "type": "VEC3"
    },
    {
      "bufferView": 3,
      "componentType": 5126,
      "count": 16833,
      "type": "VEC4"
    },
    {
      "bufferView": 4,
      "componentType": 5126,
      "count": 16833,
      "type": "VEC2"
    }
  ],
  "asset": {
    "generator": "Adobe Substance 3D Painter 8.1.0",
    "version": "2.0"
  },
  "bufferViews": [
    {
      "buffer": 0,
      "byteLength": 391236,
      "target": 34963
    },
    {
      "buffer": 0,
      "byteLength": 201996,
      "byteOffset": 391236,
      "target": 34962
    },
    {
      "buffer": 0,
      "byteLength": 201996,
      "byteOffset": 593232,
      "target": 34962
    },
    {
      "buffer": 0,
      "byteLength": 269328,
      "byteOffset": 795228,
      "target": 34962
    },
    {
      "buffer": 0,
      "byteLength": 134664,
      "byteOffset": 1064556,
      "target": 34962
    }
  ],
  "buffers": [
    {
      "byteLength": 1199220,
      "uri": "Elle_Deco_Popou_2022-07-05_jul_03.bin"
    }
  ],
  "images": [
    {
      "uri": "lambert2_baseColor.png"
    },
    {
      "uri": "lambert2_occlusionRoughnessMetallic.png"
    },
    {
      "uri": "lambert2_normal.png"
    }
  ],
  "materials": [
    {
      "alphaMode": "OPAQUE",
      "name": "lambert2",
      "normalTexture": {
        "index": 2
      },
      "occlusionTexture": {
        "index": 1
      },
      "pbrMetallicRoughness": {
        "baseColorTexture": {
          "index": 0
        },
        "metallicRoughnessTexture": {
          "index": 1
        }
      }
    }
  ],
  "meshes": [
    {
      "name": "Retopo_Default",
      "primitives": [
        {
          "attributes": {
            "NORMAL": 2,
            "POSITION": 1,
            "TANGENT": 3,
            "TEXCOORD_0": 4
          },
          "indices": 0,
          "material": 0,
          "mode": 4
        }
      ]
    }
  ],
  "nodes": [
    {
      "children": [
        1
      ],
      "name": "RootNode"
    },
    {
      "children": [
        2
      ],
      "name": "Retopo_Default"
    },
    {
      "mesh": 0,
      "name": "Retopo_Default"
    }
  ],
  "samplers": [
    {
      "magFilter": 9729,
      "minFilter": 9985,
      "wrapS": 10497,
      "wrapT": 10497
    }
  ],
  "scene": 0,
  "scenes": [
    {
      "name": "Scene",
      "nodes": [
        0
      ]
    }
  ],
  "textures": [
    {
      "sampler": 0,
      "source": 0
    },
    {
      "sampler": 0,
      "source": 1
    },
    {
      "sampler": 0,
      "source": 2
    }
  ]
}